<svg width="48" height="48" viewBox="0 0 48 48" fill="none" xmlns="http://www.w3.org/2000/svg">
<path d="M27.0506 25.7462C26.1192 24.9662 24.7466 25.0027 23.8576 25.8307L21.245 28.2653V14.8504C21.245 13.2744 19.9627 11.9922 18.3866 11.9922C16.8106 11.9922 15.5284 13.2744 15.5284 14.8504V19.8963C15.0884 19.6345 14.5858 19.4966 14.0738 19.497C13.2138 19.497 12.4418 19.8795 11.9173 20.4825C11.393 19.8795 10.621 19.497 9.7609 19.497C8.9008 19.497 8.12893 19.8795 7.60447 20.4825C7.0801 19.8795 6.30814 19.497 5.44803 19.497C3.87192 19.497 2.58972 20.7792 2.58972 22.3554V28.1138C2.58972 28.5015 2.90384 28.8156 3.2915 28.8156C3.67917 28.8156 3.99329 28.5015 3.99329 28.1138V22.3554C3.99329 21.5533 4.64594 20.9006 5.44803 20.9006C6.25003 20.9006 6.90259 21.5533 6.90259 22.3554L6.90268 26.3302C6.90268 26.7178 7.2168 27.0319 7.60447 27.0319C7.99213 27.0319 8.30625 26.7178 8.30625 26.3302V22.3554C8.30625 21.5533 8.95881 20.9006 9.7609 20.9006C10.563 20.9006 11.2156 21.5533 11.2156 22.3554V26.3302C11.2156 26.7178 11.5297 27.0319 11.9173 27.0319C12.305 27.0319 12.6191 26.7178 12.6191 26.3302V22.3554C12.6191 21.5533 13.2717 20.9006 14.0738 20.9006C14.8759 20.9006 15.5284 21.5533 15.5284 22.3554V26.3338C15.5284 26.7215 15.8425 27.0356 16.2302 27.0356C16.6179 27.0356 16.932 26.7215 16.932 26.3338V14.8504C16.932 14.0483 17.5846 13.3958 18.3866 13.3958C19.1887 13.3958 19.8414 14.0483 19.8414 14.8504V29.8785C19.8414 30.0151 19.8813 30.1489 19.9562 30.2632C20.0312 30.3775 20.1379 30.4674 20.2632 30.522C20.3886 30.5765 20.5271 30.5932 20.6618 30.5701C20.7966 30.547 20.9216 30.4851 21.0216 30.3919L24.8145 26.8576C25.1861 26.5114 25.7601 26.4963 26.1494 26.8222C26.5143 27.1278 26.6155 27.6539 26.3899 28.0731C26.3879 28.0769 26.3859 28.0807 26.384 28.0846L23.7201 33.2628C23.6349 33.4283 23.619 33.6209 23.6759 33.7981C23.7327 33.9753 23.8576 34.1227 24.0231 34.2079C24.105 34.2501 24.1945 34.2757 24.2863 34.2833C24.3782 34.2909 24.4706 34.2803 24.5584 34.2522C24.6461 34.224 24.7275 34.1789 24.7978 34.1193C24.8681 34.0597 24.926 33.9869 24.9681 33.9049L27.6293 28.732C28.1644 27.7302 27.9216 26.4756 27.0506 25.7462ZM23.2967 35.6198C23.1312 35.5346 22.9386 35.5187 22.7614 35.5755C22.5842 35.6324 22.4368 35.7573 22.3516 35.9228L21.1766 38.2066C21.0625 38.4286 20.9107 38.629 20.7279 38.7989L16.3357 42.8847C16.2651 42.9504 16.2088 43.0299 16.1702 43.1183C16.1317 43.2067 16.1119 43.3021 16.1118 43.3985V47.2978C16.1118 47.6855 16.426 47.9996 16.8136 47.9996C17.2013 47.9996 17.5154 47.6855 17.5154 47.2978V43.7042L21.684 39.8265C21.9857 39.546 22.2364 39.2152 22.4247 38.8487L23.5997 36.5648C23.6848 36.3993 23.7007 36.2068 23.6439 36.0296C23.5871 35.8523 23.4622 35.7049 23.2967 35.6198ZM4.239 40.5891C4.07817 40.3127 3.99342 39.9985 3.99338 39.6787V31.1046C3.99338 30.7169 3.67926 30.4028 3.2916 30.4028C2.90393 30.4028 2.58982 30.7169 2.58982 31.1046V39.6787C2.58995 40.2465 2.74039 40.8043 3.02586 41.2951L3.96877 42.9155V47.2102C3.96877 47.5979 4.28289 47.912 4.67055 47.912C5.05822 47.912 5.37233 47.5979 5.37233 47.2102V42.7261C5.3723 42.6021 5.33943 42.4803 5.27708 42.3732L4.239 40.5891Z" fill="#00C8FF"/>
<path d="M8.57226 16.586H13.4231C13.8107 16.586 14.1249 16.2719 14.1249 15.8842C14.1249 15.4966 13.8107 15.1824 13.4231 15.1824H8.57226C7.23654 15.1824 6.14981 14.0958 6.14981 12.76V3.82602C6.1499 2.4902 7.23654 1.40356 8.57226 1.40356H36.9411C37.3288 1.40356 37.6429 1.08945 37.6429 0.701782C37.6429 0.314118 37.3288 0 36.9411 0H8.57226C6.46262 0 4.74634 1.71637 4.74634 3.82602V12.7601C4.74634 14.8696 6.46262 16.586 8.57226 16.586ZM41.5842 0H39.9318C39.5441 0 39.23 0.314118 39.23 0.701782C39.23 1.08945 39.5441 1.40356 39.9318 1.40356H41.5842C42.9199 1.40356 44.0066 2.4902 44.0066 3.82602V12.7601C44.0066 14.0958 42.92 15.1825 41.5842 15.1825H23.3503C22.9626 15.1825 22.6485 15.4967 22.6485 15.8843C22.6485 16.272 22.9626 16.5861 23.3503 16.5861H41.5842C43.6938 16.5861 45.4102 14.8697 45.4102 12.7601V3.82602C45.4102 1.71637 43.6938 0 41.5842 0Z" fill="#00C8FF"/>
<path d="M37.5831 4.80775C37.5207 4.73989 37.4456 4.68497 37.362 4.64614C37.2785 4.60731 37.188 4.58533 37.096 4.58145C37.0039 4.57758 36.9119 4.59188 36.8254 4.62355C36.7388 4.65522 36.6594 4.70363 36.5915 4.76602L34.9881 6.23976V5.21741C34.9881 4.82974 34.674 4.51562 34.2863 4.51562C33.8986 4.51562 33.5845 4.82974 33.5845 5.21741V10.3856C33.5845 10.7733 33.8986 11.0874 34.2863 11.0874C34.674 11.0874 34.9881 10.7733 34.9881 10.3856V9.17854L36.7627 10.8906C36.8933 11.017 37.068 11.0876 37.2498 11.0874C37.3897 11.0874 37.5264 11.0457 37.6424 10.9675C37.7583 10.8892 37.8483 10.7782 37.9007 10.6484C37.9531 10.5187 37.9655 10.3763 37.9363 10.2395C37.9072 10.1027 37.8378 9.97771 37.7371 9.88061L35.4752 7.69835L37.5413 5.79932C37.6091 5.73698 37.6641 5.66186 37.7029 5.57828C37.7417 5.4947 37.7637 5.40429 37.7676 5.3122C37.7715 5.22012 37.7572 5.12818 37.7255 5.04162C37.6939 4.95507 37.6455 4.8756 37.5831 4.80775ZM14.479 4.54828H12.9778C12.8856 4.54827 12.7944 4.56641 12.7092 4.60168C12.6241 4.63694 12.5467 4.68863 12.4815 4.7538C12.4164 4.81897 12.3647 4.89634 12.3294 4.98149C12.2941 5.06664 12.276 5.1579 12.276 5.25006V10.4184C12.276 10.5105 12.2941 10.6018 12.3294 10.6869C12.3646 10.7721 12.4163 10.8495 12.4815 10.9146C12.5467 10.9798 12.624 11.0315 12.7092 11.0668C12.7943 11.102 12.8856 11.1202 12.9778 11.1201H12.981C12.981 11.1201 14.3608 11.114 14.7412 11.114C15.8952 11.114 16.8341 10.1751 16.8341 9.02106C16.8341 8.38104 16.545 7.80745 16.0908 7.42325C16.2732 7.12745 16.3698 6.78684 16.37 6.43935C16.37 5.3965 15.5218 4.54828 14.479 4.54828ZM14.479 5.95184C14.7478 5.95184 14.9664 6.17052 14.9664 6.43926C14.9664 6.70799 14.7478 6.92667 14.479 6.92667C14.3657 6.92667 14.1498 6.92732 13.916 6.92816H13.6796V5.95184H14.479ZM14.7412 9.71031C14.5446 9.71031 14.0821 9.71199 13.6796 9.71358V8.33257L13.9222 8.33163H14.7411C15.1213 8.33163 15.4305 8.64089 15.4305 9.02088C15.4306 9.40106 15.1214 9.71031 14.7412 9.71031ZM17.9431 8.06711C17.9431 9.87892 19.4171 11.353 21.229 11.353C23.0408 11.353 24.5149 9.87892 24.5149 8.06711C24.5149 6.2553 23.0408 4.78127 21.229 4.78127C19.4171 4.78127 17.9431 6.2553 17.9431 8.06711ZM23.1113 8.06711C23.1113 9.10509 22.2669 9.94947 21.229 9.94947C20.1911 9.94947 19.3467 9.10509 19.3467 8.06711C19.3467 7.02922 20.1911 6.18484 21.229 6.18484C22.2669 6.18484 23.1113 7.02922 23.1113 8.06711ZM25.5613 8.06711C25.5613 9.87892 27.0353 11.353 28.8471 11.353C30.6589 11.353 32.1331 9.87892 32.1331 8.06711C32.1331 6.2553 30.6589 4.78127 28.8471 4.78127C27.0353 4.78127 25.5613 6.2553 25.5613 8.06711ZM30.7295 8.06711C30.7295 9.10509 29.8851 9.94947 28.8471 9.94947C27.8092 9.94947 26.9649 9.10509 26.9649 8.06711C26.9649 7.02922 27.8092 6.18484 28.8471 6.18484C29.8851 6.18484 30.7295 7.02922 30.7295 8.06711ZM43.6223 19.5432L42.2485 18.5358C42.1743 18.4804 42.0898 18.4402 41.9999 18.4176C41.9101 18.395 41.8166 18.3904 41.725 18.4041C41.6333 18.4178 41.5453 18.4495 41.466 18.4974C41.3867 18.5453 41.3176 18.6084 41.2628 18.6831C41.208 18.7578 41.1685 18.8427 41.1467 18.9327C41.1248 19.0228 41.121 19.1162 41.1355 19.2078C41.15 19.2993 41.1824 19.387 41.231 19.466C41.2796 19.5449 41.3433 19.6134 41.4185 19.6676L42.7922 20.6749C42.9123 20.7633 43.0576 20.811 43.2067 20.8109C43.3547 20.811 43.4989 20.7643 43.6188 20.6776C43.7386 20.5908 43.828 20.4683 43.8741 20.3277C43.9202 20.1871 43.9207 20.0355 43.8754 19.8946C43.8302 19.7537 43.7416 19.6307 43.6223 19.5432ZM34.6242 18.5358L33.2505 19.5432C33.1311 19.6307 33.0425 19.7537 32.9973 19.8946C32.9521 20.0355 32.9525 20.1871 32.9986 20.3278C33.0447 20.4684 33.1341 20.5908 33.254 20.6776C33.3739 20.7644 33.5181 20.811 33.6661 20.8109C33.8153 20.811 33.9605 20.7633 34.0806 20.6749L35.4544 19.6676C35.6044 19.5575 35.7046 19.3923 35.7329 19.2083C35.7612 19.0244 35.7152 18.8367 35.6051 18.6866C35.4951 18.5365 35.3299 18.4363 35.1459 18.4081C34.9619 18.3798 34.7743 18.4257 34.6242 18.5358ZM38.4364 19.4982C38.3442 19.4982 38.2529 19.5163 38.1678 19.5516C38.0826 19.5869 38.0053 19.6385 37.9401 19.7037C37.8749 19.7689 37.8232 19.8463 37.788 19.9314C37.7527 20.0166 37.7346 20.1078 37.7346 20.2V21.9145C37.7346 22.3021 38.0487 22.6163 38.4364 22.6163C38.824 22.6163 39.1381 22.3021 39.1381 21.9145V20.2C39.1381 20.0139 39.0642 19.8354 38.9326 19.7037C38.801 19.5721 38.6225 19.4982 38.4364 19.4982Z" fill="#00C8FF"/>
</svg>
