<svg width="44" height="43" viewBox="0 0 44 43" fill="none" xmlns="http://www.w3.org/2000/svg">
<path d="M4.03743 18.1143C4.43118 18.1893 4.81555 17.9361 4.89993 17.5424C6.2968 10.6986 11.6406 5.35489 18.4843 3.95802C18.8781 3.87364 19.1312 3.49865 19.0562 3.1049C18.9812 2.71114 18.5968 2.45802 18.2031 2.53302C10.7874 4.0424 4.99368 9.84552 3.4843 17.2611C3.39993 17.6549 3.65305 18.0299 4.03743 18.1143ZM18.4843 38.1674C11.6406 36.7705 6.2968 31.4268 4.89993 24.583C4.6843 23.6736 3.31555 23.9455 3.4843 24.8736C4.99368 32.2893 10.7874 38.083 18.2031 39.583C19.1218 39.7236 19.3937 38.3924 18.4843 38.1674ZM39.9624 24.0111C39.5687 23.9361 39.1843 24.1893 39.0999 24.583C37.7031 31.4268 32.3593 36.7705 25.5156 38.1674C25.1218 38.2518 24.8781 38.6455 24.9624 39.0393C25.0374 39.3674 25.3187 39.6018 25.6562 39.6111C33.1374 38.1674 39.0062 32.3455 40.5156 24.8736C40.6093 24.4799 40.3562 24.0955 39.9624 24.0111ZM25.5156 3.9674C32.3593 5.36427 37.7031 10.708 39.0999 17.5518C39.3249 18.4518 40.6749 18.1893 40.5249 17.2611C39.0156 9.84552 33.2218 4.05177 25.8062 2.5424C25.4124 2.45802 25.0281 2.71114 24.9437 3.1049C24.8687 3.49865 25.1218 3.88302 25.5156 3.9674ZM30.9999 11.1299L17.6312 16.2768C17.4437 16.3518 17.2937 16.5018 17.2187 16.6893L12.0624 30.0768C11.8281 30.6393 12.4374 31.258 12.9999 31.0143L26.3687 25.8674C26.5562 25.7924 26.7156 25.6424 26.7812 25.4455L31.9374 12.0674C32.1624 11.5049 31.5624 10.9049 30.9999 11.1299ZM14.0124 29.0549L18.1656 18.2549L24.8124 24.9018L14.0124 29.0549ZM25.8343 23.8705L19.1874 17.2236L29.9874 13.0705L25.8343 23.8705ZM6.72805 21.0674C6.72805 20.6643 6.39993 20.3361 5.9968 20.3361H1.63743C1.2343 20.3174 0.896802 20.6361 0.887427 21.0393C0.868677 21.4611 1.22493 21.808 1.63743 21.7893H5.9968C6.39993 21.7893 6.72805 21.4611 6.72805 21.0674ZM42.3624 20.3361H38.0031C37.0468 20.3268 36.9906 21.733 37.9468 21.7893H42.3624C42.7656 21.7705 43.0749 21.433 43.0656 21.0393C43.0468 20.6549 42.7468 20.3455 42.3624 20.3361ZM21.9999 36.3393C21.5968 36.3393 21.2687 36.6674 21.2687 37.0705V41.4299C21.2874 41.833 21.6249 42.1424 22.0187 42.133C22.4031 42.1143 22.7031 41.8143 22.7218 41.4299V37.0705C22.7312 36.658 22.4031 36.3393 21.9999 36.3393ZM21.9999 5.78614C22.4031 5.78614 22.7312 5.45802 22.7312 5.0549V0.69552C22.7124 0.292395 22.3749 -0.01698 21.9812 -0.00760498C21.5968 0.011145 21.2968 0.311145 21.2781 0.69552V5.06427C21.2781 5.4674 21.5968 5.78614 21.9999 5.78614Z" fill="#00C8FF"/>
</svg>
