<svg width="48" height="47" viewBox="0 0 48 47" fill="none" xmlns="http://www.w3.org/2000/svg">
<path d="M27 46.235H21C19.6 46.235 18 45.0943 18 42.8129V38.8205C18 36.9194 17 35.2083 15.4 33.8775C11.8 31.2159 10 27.4137 10 23.2312C10.2 16.0068 16.4 10.3034 23.8 10.1133C27.6 10.1133 31.2 11.4441 33.8 13.9156C36.4 16.387 38 19.8091 38 23.4213C38 27.4137 36.2 31.2159 32.8 33.6874C31 35.0182 30 37.1095 30 39.0106V43.3832C30 44.9042 28.6 46.235 27 46.235ZM24 12.0144C17.6 12.0144 12.2 17.1475 12 23.2312C12 26.8433 13.6 30.2654 16.6 32.3566C18.8 34.0677 20 36.349 20 38.8205V42.8129C20 43.1931 20 44.3338 21 44.3338H27C27.6 44.3338 28 43.9536 28 43.3832V39.0106C28 36.5391 29.4 33.8775 31.6 32.1665C34.4 30.0753 36 26.8433 36 23.4213C36 20.3794 34.8 17.5277 32.4 15.2464C30.2 13.1551 27.2 12.0144 24 12.0144Z" fill="#00C8FF"/>
<path d="M29 40.5333H19C18.4 40.5333 18 40.1531 18 39.5828C18 39.0124 18.4 38.6322 19 38.6322H29C29.6 38.6322 30 39.0124 30 39.5828C30 40.1531 29.6 40.5333 29 40.5333ZM24 6.3128C23.4 6.3128 23 5.93257 23 5.36223V1.55995C23 0.989603 23.4 0.609375 24 0.609375C24.6 0.609375 25 0.989603 25 1.55995V5.36223C25 5.93257 24.6 6.3128 24 6.3128ZM37.4 11.636C37.2 11.636 36.8 11.636 36.6 11.4459C36.2 11.0656 36.2 10.4953 36.6 10.1151L39.4 7.45348C39.8 7.07325 40.4 7.07325 40.8 7.45348C41.2 7.83371 41.2 8.40405 40.8 8.78428L38 11.4459C38 11.4459 37.6 11.636 37.4 11.636ZM47 24.3736H43C42.4 24.3736 42 23.9934 42 23.4231C42 22.8527 42.4 22.4725 43 22.4725H47C47.6 22.4725 48 22.8527 48 23.4231C48 23.9934 47.6 24.3736 47 24.3736ZM40.2 39.7729C40 39.7729 39.6 39.7729 39.4 39.5828L36.6 36.9212C36.2 36.5409 36.2 35.9706 36.6 35.5904C37 35.2101 37.6 35.2101 38 35.5904L40.8 38.252C41.2 38.6322 41.2 39.2025 40.8 39.5828C40.8 39.7729 40.6 39.7729 40.2 39.7729ZM7.8 39.7729C7.6 39.7729 7.2 39.7729 7 39.5828C6.6 39.2025 6.6 38.6322 7 38.252L9.8 35.5904C10.2 35.2101 10.8 35.2101 11.2 35.5904C11.6 35.9706 11.6 36.5409 11.2 36.9212L8.4 39.5828C8.2 39.7729 8 39.7729 7.8 39.7729ZM5 24.3736H1C0.4 24.3736 0 23.9934 0 23.4231C0 22.8527 0.4 22.4725 1 22.4725H5C5.6 22.4725 6 22.8527 6 23.4231C6 23.9934 5.6 24.3736 5 24.3736ZM10.6 11.636C10.4 11.636 10 11.636 9.8 11.4459L7 8.59417C6.6 8.21394 6.6 7.6436 7 7.26337C7.4 6.88314 8 6.88314 8.4 7.26337L11.2 9.92496C11.6 10.3052 11.6 10.8755 11.2 11.2558C11 11.4459 10.8 11.636 10.6 11.636ZM32 24.3736C31.4 24.3736 31 23.9934 31 23.4231C31 19.8109 27.8 16.7691 24 16.7691C23.4 16.7691 23 16.3888 23 15.8185C23 15.2482 23.4 14.8679 24 14.8679C29 14.8679 33 18.6702 33 23.4231C33 23.9934 32.6 24.3736 32 24.3736Z" fill="#00C8FF"/>
</svg>
