<svg width="44" height="44" viewBox="0 0 44 44" fill="none" xmlns="http://www.w3.org/2000/svg">
<path d="M39.5105 22.1026C39.467 22.3291 39.5149 22.5637 39.6437 22.755C39.7725 22.9464 39.9718 23.0791 40.198 23.1241C40.4242 23.169 40.6591 23.1227 40.8513 22.9952C41.0436 22.8677 41.1775 22.6693 41.2241 22.4434L43.5281 10.6258C43.6184 10.1869 43.6201 9.73446 43.533 9.29495C43.4459 8.85544 43.2718 8.43779 43.0209 8.06657C42.77 7.69536 42.4473 7.37807 42.072 7.13339C41.6967 6.8887 41.2762 6.72156 40.8353 6.6418L29.3681 4.3858L29.1233 3.109C28.9267 2.2138 28.3835 1.43292 27.6125 0.937254C26.8416 0.441587 25.9057 0.271494 25.0097 0.464199L7.90726 3.8098C7.7978 3.82449 7.69291 3.86307 7.60001 3.92279C7.50711 3.98251 7.42847 4.06192 7.36966 4.1554L0.659259 13.8418C0.553019 13.9445 0.473774 14.0718 0.428557 14.2125C0.383341 14.3532 0.373552 14.5028 0.400059 14.6482L5.50726 40.5394C5.69645 41.4425 6.23659 42.2336 7.0089 42.7385C7.78121 43.2435 8.72245 43.4211 9.62566 43.2322L24.0785 40.4386C24.1878 40.4159 24.2916 40.3719 24.384 40.3091C24.4764 40.2463 24.5554 40.1659 24.6167 40.0725C24.678 39.9791 24.7203 39.8746 24.7412 39.7649C24.7621 39.6551 24.7612 39.5424 24.7385 39.433C24.7158 39.3236 24.6718 39.2198 24.6089 39.1275C24.5461 39.0351 24.4657 38.956 24.3723 38.8947C24.279 38.8334 24.1744 38.7912 24.0647 38.7703C23.955 38.7494 23.8422 38.7503 23.7329 38.773L9.28006 41.5666C9.05463 41.6127 8.8223 41.6137 8.59649 41.5695C8.37067 41.5254 8.15584 41.4369 7.96439 41.3093C7.77294 41.1817 7.60866 41.0174 7.48105 40.8259C7.35343 40.6345 7.265 40.4196 7.22086 40.1938L2.27206 15.1378L7.02886 14.2066C7.92952 14.0255 8.72244 13.4966 9.23556 12.7345C9.74867 11.9725 9.94059 11.0388 9.76966 10.1362L8.83846 5.3794L25.3601 2.1442C25.5824 2.09351 25.8126 2.08771 26.0372 2.12714C26.2618 2.16657 26.4763 2.25043 26.6681 2.37382C26.8599 2.4972 27.0251 2.65762 27.1541 2.84568C27.2831 3.03374 27.3732 3.24565 27.4193 3.469C28.7441 10.189 30.0641 16.9522 31.3889 23.6722C29.3864 23.966 27.4653 24.6668 25.7441 25.7314C23.8817 27.2002 22.9025 28.9186 23.5889 31.3666C24.7372 35.3502 26.8 39.0106 29.6129 42.0562C30.0871 42.5446 30.6545 42.9329 31.2816 43.1981C31.9086 43.4632 32.5825 43.5999 33.2633 43.5999C33.944 43.5999 34.6179 43.4632 35.2449 43.1981C35.872 42.9329 36.4394 42.5446 36.9137 42.0562C39.774 39.0183 41.8587 35.3347 42.9905 31.3186C43.2761 30.2743 43.2158 29.1656 42.8186 28.1584C42.4214 27.1512 41.7088 26.2997 40.7873 25.7314C38.4958 24.271 35.8241 23.5196 33.1073 23.5714L32.5697 20.6914L33.5297 20.8882C34.6577 21.085 34.9985 19.4194 33.8705 19.2226L32.1569 18.829L31.3745 14.6146L35.8337 15.445C36.9569 15.6418 37.2017 13.9762 36.1265 13.7314L30.9857 12.7858L29.7137 6.2146L40.4897 8.3218C40.7047 8.35683 40.9104 8.43493 41.0945 8.55142C41.2786 8.6679 41.4372 8.82037 41.5609 8.99967C41.6847 9.17897 41.7709 9.38142 41.8145 9.59486C41.858 9.80831 41.858 10.0284 41.8145 10.2418L39.5105 22.1026ZM9.13606 28.0354C8.05606 28.2322 8.39686 29.9554 9.47686 29.701L20.6945 27.445C20.9153 27.3998 21.1092 27.2687 21.2334 27.0806C21.3577 26.8925 21.4021 26.6627 21.3569 26.4418C21.3117 26.2209 21.1806 26.0271 20.9924 25.9028C20.8043 25.7786 20.5745 25.7342 20.3537 25.7794L9.13606 28.0354ZM26.4785 19.6018L8.15206 23.3266C7.07686 23.5234 7.41766 25.189 8.49766 24.9922L26.8001 21.2674C26.9147 21.2521 27.0251 21.2135 27.1243 21.154C27.2236 21.0945 27.3096 21.0153 27.3771 20.9214C27.4447 20.8275 27.4924 20.7207 27.5172 20.6077C27.5421 20.4947 27.5436 20.3778 27.5216 20.2642C27.4997 20.1506 27.4548 20.0427 27.3897 19.9471C27.3245 19.8514 27.2406 19.7701 27.1429 19.7081C27.0452 19.6461 26.9359 19.6046 26.8216 19.5864C26.7074 19.5681 26.5906 19.5733 26.4785 19.6018ZM25.5185 14.845L7.22086 18.5698C6.14566 18.7666 6.48646 20.4322 7.56646 20.2354L25.8401 16.5106C25.9494 16.4882 26.0533 16.4445 26.1458 16.382C26.2383 16.3195 26.3175 16.2393 26.379 16.1462C26.4405 16.053 26.4831 15.9487 26.5043 15.8391C26.5255 15.7295 26.5248 15.6168 26.5025 15.5074C26.4801 15.398 26.4364 15.2941 26.3739 15.2017C26.3113 15.1092 26.2312 15.0299 26.138 14.9684C26.0449 14.9069 25.9405 14.8644 25.8309 14.8432C25.7213 14.822 25.6086 14.8226 25.4993 14.845H25.5185ZM31.2497 35.389C31.4026 35.546 31.5855 35.6709 31.7875 35.7561C31.9894 35.8413 32.2064 35.8852 32.4257 35.8852C32.6449 35.8852 32.8619 35.8413 33.0639 35.7561C33.2658 35.6709 33.4487 35.546 33.6017 35.389L37.6961 31.1698C38.4833 30.3874 37.2593 29.1634 36.4721 29.9458L32.4545 34.165L30.5345 32.245C29.7521 31.4626 28.5281 32.6866 29.3105 33.4738L31.2497 35.389ZM6.68326 12.541L3.20326 13.1746L7.41766 7.1218L8.10406 10.4818C8.17866 10.9449 8.07006 11.4188 7.80127 11.8032C7.53248 12.1875 7.1246 12.4522 6.66406 12.541H6.68326ZM39.8561 27.1522C40.4798 27.5218 40.9627 28.0885 41.2287 28.7629C41.4946 29.4374 41.5285 30.1812 41.3249 30.877C40.271 34.613 38.3388 38.0429 35.6897 40.8802C35.0371 41.5065 34.1677 41.8562 33.2633 41.8562C32.3588 41.8562 31.4894 41.5065 30.8369 40.8802C28.2051 38.0386 26.2911 34.6088 25.2545 30.877C25.0383 30.1918 25.0632 29.4533 25.3252 28.7843C25.5872 28.1154 26.0705 27.5563 26.6945 27.2002C28.6613 25.9444 30.9444 25.2732 33.2779 25.2647C35.6114 25.2562 37.8993 25.9108 39.8753 27.1522H39.8561Z" fill="#00C8FF"/>
</svg>
