<svg width="48" height="48" viewBox="0 0 48 48" fill="none" xmlns="http://www.w3.org/2000/svg">
<path fill-rule="evenodd" clip-rule="evenodd" d="M1.51825 34.0898L16.7184 18.8887C16.8192 18.7878 16.9388 18.7078 17.0705 18.6532C17.2022 18.5986 17.3434 18.5705 17.4859 18.5705C17.6285 18.5705 17.7697 18.5986 17.9014 18.6532C18.0331 18.7078 18.1527 18.7878 18.2535 18.8887L26.172 26.8082L35.4936 17.4861L31.9186 13.9106C31.6306 13.6226 31.5279 13.1997 31.6527 12.8119C31.7133 12.6219 31.8253 12.4523 31.9762 12.3218C32.1271 12.1914 32.3112 12.1052 32.508 12.0727L45.5367 9.90119C45.7069 9.87311 45.8815 9.88602 46.0458 9.93883C46.2101 9.99164 46.3594 10.0828 46.4814 10.2049C46.6035 10.3269 46.6947 10.4763 46.7475 10.6406C46.8003 10.8049 46.8132 10.9794 46.7851 11.1497L44.6136 24.1778C44.5812 24.3747 44.4951 24.5589 44.3646 24.7099C44.2342 24.8609 44.0645 24.973 43.8744 25.0337C43.4871 25.1585 43.0632 25.0553 42.7757 24.7673L39.2007 21.1922L26.9395 33.4533C26.8388 33.5543 26.7191 33.6344 26.5874 33.689C26.4556 33.7436 26.3144 33.7718 26.1718 33.7718C26.0292 33.7718 25.8879 33.7436 25.7562 33.689C25.6244 33.6344 25.5048 33.5543 25.404 33.4533L17.4864 25.5353L5.22481 37.7954C5.12406 37.8963 5.00442 37.9763 4.87272 38.0309C4.74102 38.0855 4.59986 38.1136 4.45729 38.1136C4.31473 38.1136 4.17356 38.0855 4.04186 38.0309C3.91016 37.9763 3.79052 37.8963 3.68977 37.7954L1.51825 35.6244C1.41731 35.5236 1.33723 35.404 1.28259 35.2722C1.22795 35.1405 1.19983 34.9993 1.19983 34.8566C1.19983 34.714 1.22795 34.5728 1.28259 34.441C1.33723 34.3093 1.41731 34.1896 1.51825 34.0889V34.0898Z" fill="#00C8FF"/>
</svg>
